<svg width="85" height="88" viewBox="0 0 85 88" fill="none" xmlns="http://www.w3.org/2000/svg">
    <path d="M30.2324 51.8082C25.4986 28.903 29.9828 13.875 29.9828 13.875C29.9828 13.875 28.7833 23.024 38.2174 37.772C38.0986 56.0551 41.7761 65.5913 41.7761 65.5913L42.531 65.0463L41.7761 65.6896C41.7761 65.6896 36.1808 61.2223 30.2324 51.8082Z" fill="#0A5959"/>
    <path d="M52.5312 48.5647C54.7931 50.7954 56.9058 52.3381 58.4309 53.0737C58.4218 53.0707 58.4126 53.0648 58.4035 53.0588C58.4035 53.0588 60.1174 53.6604 60.4188 53.2584C62.5071 51.0962 63.0186 47.0637 61.6273 39.4842C53.6637 35.0348 52.6591 28.1016 52.6591 28.1016C52.6591 28.1016 51.2252 37.7301 52.5312 48.5618V48.5647Z" fill="#0A5959"/>
    <path d="M29.9827 13.8749C29.9827 13.8749 23.4315 35.8242 34.5186 67.0922C34.8199 67.9946 34.5186 68.9953 33.7118 69.5969L22.019 77.6142C20.9109 78.4153 19.2975 77.915 18.7952 76.6105C15.6688 68.2954 7.10233 40.7322 15.7692 10.5661C16.1741 9.36294 17.4831 8.66306 18.6947 9.1634L29.9827 13.8749Z" fill="url(#paint0_linear_0_3244)"/>
    <path d="M52.3562 57.973L41.7745 65.5912C41.7745 65.5912 36.1305 50.9594 39.053 23.1966C39.2539 21.5944 40.9678 20.7903 42.3803 21.5944L52.6606 28.1077C52.6606 28.1077 50.6454 41.6376 53.5678 54.6672C53.8692 55.9687 53.3669 57.2731 52.3593 57.976L52.3562 57.973Z" fill="url(#paint1_linear_0_3244)"/>
    <path d="M71.9097 41.0329L62.1316 34.7191C61.5258 34.317 60.6187 34.9186 60.8226 35.6215C63.1423 45.7444 62.8379 50.7537 60.4208 53.2613C60.1194 53.6634 58.4055 53.0618 58.4055 53.0618C60.019 53.8629 60.4208 53.4638 60.4208 53.4638C62.0342 52.2607 68.08 47.9512 71.9097 45.3453C73.4226 44.2434 73.4226 42.0365 71.9097 41.0358V41.0329Z" fill="#4BDFFF"/>
    <defs>
        <linearGradient id="paint0_linear_0_3244" x1="23.3166" y1="9" x2="23.3166" y2="78" gradientUnits="userSpaceOnUse">
            <stop stop-color="#0BD895"/>
            <stop offset="1" stop-color="#4BDFFF"/>
        </linearGradient>
        <linearGradient id="paint1_linear_0_3244" x1="45.934" y1="21.2788" x2="45.934" y2="65.5912" gradientUnits="userSpaceOnUse">
            <stop stop-color="#0BD895"/>
            <stop offset="1" stop-color="#4BDFFF"/>
        </linearGradient>
    </defs>
</svg>
