<svg width="61" height="60" viewBox="0 0 61 60" fill="none" xmlns="http://www.w3.org/2000/svg">
    <rect x="0.5" width="60" height="60" rx="30" fill="#2B2F44"/>
    <path d="M30.5 16.3392C28.6615 16.3392 26.841 16.7013 25.1424 17.4049C23.4439 18.1084 21.9005 19.1397 20.6005 20.4397C17.975 23.0652 16.5 26.6261 16.5 30.3392C16.5 36.5272 20.518 41.7772 26.076 43.6392C26.776 43.7512 27 43.3172 27 42.9392V40.5732C23.122 41.4132 22.296 38.6972 22.296 38.6972C21.652 37.0732 20.742 36.6392 20.742 36.6392C19.468 35.7712 20.84 35.7992 20.84 35.7992C22.24 35.8972 22.982 37.2412 22.982 37.2412C24.2 39.3692 26.258 38.7392 27.056 38.4032C27.182 37.4932 27.546 36.8772 27.938 36.5272C24.83 36.1772 21.568 34.9732 21.568 29.6392C21.568 28.0852 22.1 26.8392 23.01 25.8452C22.87 25.4952 22.38 24.0392 23.15 22.1492C23.15 22.1492 24.326 21.7712 27 23.5772C28.106 23.2692 29.31 23.1152 30.5 23.1152C31.69 23.1152 32.894 23.2692 34 23.5772C36.674 21.7712 37.85 22.1492 37.85 22.1492C38.62 24.0392 38.13 25.4952 37.99 25.8452C38.9 26.8392 39.432 28.0852 39.432 29.6392C39.432 34.9872 36.156 36.1632 33.034 36.5132C33.538 36.9472 34 37.8012 34 39.1032V42.9392C34 43.3172 34.224 43.7652 34.938 43.6392C40.496 41.7632 44.5 36.5272 44.5 30.3392C44.5 28.5007 44.1379 26.6802 43.4343 24.9816C42.7307 23.283 41.6995 21.7397 40.3995 20.4397C39.0995 19.1397 37.5561 18.1084 35.8576 17.4049C34.159 16.7013 32.3385 16.3392 30.5 16.3392Z" fill="#797B88"/>
</svg>
