<svg width="61" height="60" viewBox="0 0 61 60" fill="none" xmlns="http://www.w3.org/2000/svg">
    <rect x="0.75" width="60" height="60" rx="30" fill="#2B2F44"/>
    <path d="M23.0182 44.0005H17.213V25.3058H23.0182V44.0005ZM20.1121 22.7558C18.2561 22.7558 16.75 21.2177 16.75 19.3616C16.75 18.4699 17.1042 17.6148 17.7347 16.9843C18.3653 16.3537 19.2204 15.9995 20.1121 15.9995C21.0038 15.9995 21.859 16.3537 22.4895 16.9843C23.12 17.6148 23.4742 18.4699 23.4742 19.3616C23.4742 21.2177 21.9682 22.7558 20.1121 22.7558ZM44.745 44.0005H38.9528V34.9002C38.9528 32.7311 38.9088 29.95 35.9347 29.95C32.9166 29.95 32.4536 32.3061 32.4536 34.7442V44.0005H26.6544V25.3058H32.2216V27.8559H32.3026C33.0776 26.3869 34.9707 24.8368 37.7948 24.8368C43.67 24.8368 44.75 28.706 44.75 33.7311V44.0005H44.745Z" fill="#797B88"/>
</svg>
