<svg width="61" height="60" viewBox="0 0 61 60" fill="none" xmlns="http://www.w3.org/2000/svg">
    <rect x="0.25" width="60" height="60" rx="30" fill="#2B2F44"/>
    <path d="M44.25 21.3002C43.2194 21.7686 42.1085 22.0765 40.9575 22.2237C42.1353 21.5143 43.0454 20.3901 43.4737 19.0382C42.3628 19.7075 41.1315 20.1759 39.8332 20.4436C38.7758 19.2925 37.2902 18.6233 35.6037 18.6233C32.4584 18.6233 29.8886 21.1931 29.8886 24.3652C29.8886 24.8203 29.9422 25.2619 30.0359 25.6769C25.271 25.4359 21.0282 23.1472 18.2041 19.6807C17.7089 20.5239 17.4278 21.5143 17.4278 22.5583C17.4278 24.5526 18.4316 26.3193 19.9842 27.3231C19.0339 27.3231 18.1506 27.0554 17.3743 26.6539V26.6941C17.3743 29.478 19.3552 31.8069 21.9785 32.3289C21.1363 32.5594 20.252 32.5914 19.3953 32.4226C19.7588 33.5635 20.4708 34.5619 21.4311 35.2773C22.3914 35.9928 23.5517 36.3893 24.749 36.4111C22.7195 38.0178 20.2037 38.8863 17.6152 38.8738C17.1601 38.8738 16.7051 38.847 16.25 38.7935C18.793 40.4264 21.8179 41.3767 25.0569 41.3767C35.6037 41.3767 41.3991 32.6233 41.3991 25.0344C41.3991 24.7801 41.3991 24.5392 41.3858 24.2849C42.51 23.4818 43.4737 22.4646 44.25 21.3002Z" fill="#797B88"/>
</svg>
