<svg width="60" height="60" viewBox="0 0 60 60" fill="none" xmlns="http://www.w3.org/2000/svg">
    <rect width="60" height="60" rx="30" fill="#2B2F44"/>
    <path d="M27.2 34.2L34.466 30L27.2 25.8V34.2ZM43.384 23.238C43.566 23.896 43.692 24.778 43.776 25.898C43.874 27.018 43.916 27.984 43.916 28.824L44 30C44 33.066 43.776 35.32 43.384 36.762C43.034 38.022 42.222 38.834 40.962 39.184C40.304 39.366 39.1 39.492 37.252 39.576C35.432 39.674 33.766 39.716 32.226 39.716L30 39.8C24.134 39.8 20.48 39.576 19.038 39.184C17.778 38.834 16.966 38.022 16.616 36.762C16.434 36.104 16.308 35.222 16.224 34.102C16.126 32.982 16.084 32.016 16.084 31.176L16 30C16 26.934 16.224 24.68 16.616 23.238C16.966 21.978 17.778 21.166 19.038 20.816C19.696 20.634 20.9 20.508 22.748 20.424C24.568 20.326 26.234 20.284 27.774 20.284L30 20.2C35.866 20.2 39.52 20.424 40.962 20.816C42.222 21.166 43.034 21.978 43.384 23.238Z" fill="#797B88"/>
</svg>
