<svg width="32" height="32" viewBox="0 0 32 32" fill="none" xmlns="http://www.w3.org/2000/svg">
    <path d="M24.5119 12.568C24.1959 11.8066 23.4879 11.3333 22.6639 11.3333L18.8546 11.4267L21.1426 6.1253C21.4106 5.5053 21.3479 4.79731 20.9773 4.23464C20.6066 3.67064 19.9813 3.33331 19.3066 3.33331H13.3333C12.216 3.33331 11.2893 4.03198 10.9266 5.12398L7.4373 14.0333C7.23063 14.6506 7.33062 15.3067 7.71196 15.8347C8.09329 16.3627 8.68398 16.6666 9.33598 16.6666L13.1013 16.5787L9.2546 27.784C9.1546 28.0773 9.26928 28.4013 9.53194 28.5653C9.64128 28.6333 9.76263 28.6666 9.8853 28.6666C10.0573 28.6666 10.228 28.6 10.3573 28.472L24.08 14.748C24.6613 14.1653 24.8266 13.3293 24.5119 12.568Z" fill="url(#paint0_linear_0_2452)"/>
    <defs>
        <linearGradient id="paint0_linear_0_2452" x1="7.33185" y1="23.4929" x2="14.1755" y2="23.4929" gradientUnits="userSpaceOnUse">
            <stop stop-color="#0CD890"/>
            <stop offset="1" stop-color="#01F0FD"/>
        </linearGradient>
    </defs>
</svg>
