<svg width="32" height="32" viewBox="0 0 32 32" fill="none" xmlns="http://www.w3.org/2000/svg">
    <path d="M9.61067 26.4746C8.556 27.5293 4.88398 28.4666 4.15864 28.644C4.10531 28.6573 4.05333 28.6626 3.99999 28.6626C3.82266 28.6626 3.65067 28.5919 3.524 28.4626C3.35867 28.2946 3.29599 28.052 3.35599 27.824C3.55732 27.068 4.612 23.24 5.66133 22.1906C6.252 21.6 7.01867 21.296 7.78934 21.304C8.53467 21.3213 9.25066 21.6373 9.80399 22.1906C10.932 23.32 10.8453 25.2413 9.61067 26.4746ZM22.944 19.6386L22.6 21.7333C22.2 24.2533 20.4667 26.4 18.0933 27.3466L14.92 28.6133C14.84 28.6533 14.7467 28.6666 14.6667 28.6666C14.52 28.6666 14.36 28.6133 14.24 28.5066C14.0533 28.36 13.96 28.1066 14.0133 27.8666L14.8973 23.4186C14.768 23.444 14.6453 23.4786 14.5133 23.5013C14.3507 23.5293 14.1867 23.5426 14.024 23.5426C13.2453 23.5426 12.48 23.2266 11.9066 22.6546L9.34399 20.0906C8.65065 19.3973 8.33464 18.424 8.49731 17.484C8.51997 17.3546 8.55465 17.2333 8.57865 17.1053L4.15864 17.984C4.11864 17.9973 4.06534 17.9973 4.02534 17.9973C3.82534 17.9973 3.63867 17.9173 3.51867 17.7573C3.35867 17.5706 3.31865 17.304 3.41198 17.0773L4.69201 13.8906C5.62534 11.5306 7.77198 9.7973 10.292 9.3973L12.36 9.05196C15.7746 5.13596 21.1373 2.99597 27.9973 2.99597C28.5493 2.99597 28.9973 3.44397 28.9973 3.99597C29 10.8613 26.8613 16.224 22.944 19.6386ZM25.292 12.9266C25.0867 9.57997 22.4186 6.91329 19.072 6.70662C15.2066 8.37196 11.548 11.6013 10.468 17.8266C10.4173 18.1213 10.528 18.4466 10.7587 18.6759L13.3213 21.24C13.5507 21.4693 13.8773 21.5786 14.172 21.5293C20.3987 20.4506 23.628 16.7933 25.292 12.9266ZM18 11C16.3427 11 15 12.3426 15 14C15 15.6573 16.3427 17 18 17C19.6573 17 21 15.6573 21 14C21 12.3426 19.6573 11 18 11Z" fill="url(#paint0_linear_0_2386)"/>
    <defs>
        <linearGradient id="paint0_linear_0_2386" x1="3.33368" y1="23.424" x2="13.4641" y2="23.424" gradientUnits="userSpaceOnUse">
            <stop stop-color="#0CD890"/>
            <stop offset="1" stop-color="#01F0FD"/>
        </linearGradient>
    </defs>
</svg>
